<svg width="52" height="103" viewBox="0 0 52 103" fill="none" xmlns="http://www.w3.org/2000/svg">
<path d="M1.44844 31.1144C1.97338 28.8605 4.16458 19.9669 7.7128 12.3573C9.67842 8.14178 12.0441 4.35687 14.7494 2.29751C17.4474 0.24367 20.4386 -0.0670731 23.7066 2.52285C25.4542 3.90785 26.7274 6.19458 27.6341 9.29434C28.5447 12.4077 29.0668 16.2843 29.3154 20.7308C29.8124 29.6225 29.2074 40.5972 28.5701 51.9252L28.5701 51.9254L28.5517 52.2545C28.1237 59.8902 27.6183 68.907 27.6811 76.4192C27.7129 80.2258 27.8905 83.6799 28.3068 86.3881C28.5147 87.7409 28.7871 88.9415 29.1459 89.9205C29.5049 90.9 29.9744 91.7202 30.5876 92.2061C32.9851 94.1062 35.2106 93.349 37.1385 91.3876C39.0745 89.4179 40.8043 86.1483 42.2486 82.6899C44.742 76.7197 46.4267 70.0818 46.8677 68.2577L51.1505 71.6519C50.6255 73.9057 48.4335 82.7983 44.8769 90.4009C42.9066 94.6126 40.5339 98.3917 37.8183 100.443C35.1101 102.488 32.1044 102.789 28.8164 100.183C27.0686 98.7981 25.7981 96.5165 24.8952 93.426C23.9883 90.3215 23.4709 86.4571 23.2268 82.024C22.7389 73.1641 23.3505 62.2299 23.9825 50.9307L23.9836 50.9104C23.9836 50.9104 23.9836 50.9103 23.9836 50.9103C24.4416 42.7523 24.9549 33.5507 24.8769 26.0104C24.838 22.2438 24.6514 18.857 24.2276 16.2055C24.0158 14.8808 23.7396 13.7059 23.3774 12.7456C23.0145 11.7831 22.5436 10.9819 21.9354 10.4999C19.5668 8.62279 17.3614 9.40125 15.4486 11.3714C13.5263 13.3513 11.8023 16.6247 10.3597 20.0841C7.86916 26.0563 6.17544 32.6869 5.73192 34.5091L1.44844 31.1144Z" fill="black" stroke="black"/>
</svg>
