<svg width="234" height="311" viewBox="0 0 234 311" fill="none" xmlns="http://www.w3.org/2000/svg">
<rect y="2" width="234" height="309" fill="#040404"/>
<line x1="30.0714" x2="30.0714" y2="309" stroke="white"/>
<line x1="30.0714" y1="2" x2="30.0714" y2="309" stroke="black"/>
<line x1="30.0714" y1="2" x2="30.0714" y2="309" stroke="black"/>
<path d="M30.8571 3C30.8571 122.891 30.8571 190.109 30.8571 310" stroke="#1F1F1F"/>
<line x1="59.6429" y1="2" x2="59.6429" y2="309" stroke="#1F1F1F"/>
<line x1="87.9286" y1="2" x2="87.9286" y2="309" stroke="#1F1F1F"/>
<line x1="117.5" y1="2" x2="117.5" y2="309" stroke="#1F1F1F"/>
<line x1="145.786" y1="2" x2="145.786" y2="309" stroke="#1F1F1F"/>
<line x1="176.643" y1="2" x2="176.643" y2="309" stroke="#1F1F1F"/>
<path d="M234 24L3.09944e-06 24" stroke="#222121"/>
<line x1="234" y1="44.5" y2="44.5" stroke="#222121"/>
<line x1="234" y1="66.5" y2="66.5" stroke="#222121"/>
<line x1="234" y1="87.5" y2="87.5" stroke="#222121"/>
<line x1="234" y1="110.5" y2="110.5" stroke="#222121"/>
<line x1="234" y1="130.5" y2="130.5" stroke="#222121"/>
<line x1="234" y1="175.5" y2="175.5" stroke="#222121"/>
<line x1="234" y1="196.5" y2="196.5" stroke="#222121"/>
<line x1="234" y1="218.5" y2="218.5" stroke="#222121"/>
<line x1="234" y1="238.5" y2="238.5" stroke="#222121"/>
<line x1="234" y1="258.5" y2="258.5" stroke="#222121"/>
<line x1="234" y1="275.5" y2="275.5" stroke="#222121"/>
<line x1="234" y1="275.5" y2="275.5" stroke="#222121"/>
<line x1="234" y1="297.5" y2="297.5" stroke="#222121"/>
<line x1="234" y1="152.5" y2="152.5" stroke="#222121"/>
<line x1="204.929" y1="2" x2="204.929" y2="309" stroke="#1F1F1F"/>
</svg>
